# xmcd
#
# Track frame offsets:
#	150
#	14070
#	33279
#	51675
#	69510
#	86218
#	104273
#	120768
#	136545
#	151575
#	167381
#
# Disc length: 2424 seconds
#
# Revision: 1
# Processed by: cddbd v1.5.2PL0 Copyright (c) Steve Scherf et al.
# Submitted via: audiograbber 1.83.01
#
DISCID=8109760b
DTITLE=Don Ray Band - On Top Of The Heap
DYEAR=2009
DGENRE=Blues
TTITLE0=The High Road
TTITLE1=I Might Just Say Goodbye
TTITLE2=I Can't Find My Angel
TTITLE3=So Wicked
TTITLE4=Boom Chika Wah Wah
TTITLE5=Good Bad Boy
TTITLE6=Barbecue and Beans
TTITLE7=Wrapped Around a Finger
TTITLE8=Perfect Ten
TTITLE9=How Much of this is Love
TTITLE10=On Top of the Heap
EXTD=
EXTT0=
EXTT1=
EXTT2=
EXTT3=
EXTT4=
EXTT5=
EXTT6=
EXTT7=
EXTT8=
EXTT9=
EXTT10=
PLAYORDER=
